<svg width="357" height="357" viewBox="0 0 357 357" fill="none" xmlns="http://www.w3.org/2000/svg">
<g opacity="0.2">
<circle cx="178.5" cy="178.5" r="168.5" stroke="#1D1C1C" stroke-opacity="0.4" stroke-width="20"/>
<g clip-path="url(#clip0_392_6896)">
<path d="M160.308 269.154C144.698 269.154 129.088 269.154 113.478 269.154C107.019 269.154 103.943 269.154 103.943 269.154C103.943 244.803 103.943 211.11 103.943 186.75L104.08 182.592C107.826 182.592 120.47 182.802 120.47 182.802C120.47 184.474 120.406 186.5 120.414 188.357C120.462 207.864 120.462 227.376 120.414 246.894V252.029H153.598L163.9 251.964C173.315 251.964 193.314 252.045 202.736 252.069H236.203V247.346C236.203 227.565 236.155 207.783 236.26 188.002C236.26 185.806 236.34 184.659 236.34 182.713H252.828C252.868 207.743 252.828 244.124 252.763 269.154C252.763 269.154 249.453 269.041 244.544 269.073C227.857 269.175 211.171 269.175 194.485 269.073" fill="#32343A"/>
<path d="M178.409 95.9988C167.525 106.963 156.86 117.799 146.113 128.505C126.929 147.732 107.721 166.934 88.489 186.113L81.2789 178.846L77.145 173.889C89.7243 161.369 102.277 148.822 114.802 136.248L171.005 80.0687C181.364 69.7179 176.455 69.4514 186.435 80.1898C198.602 93.294 211.682 105.518 224.31 118.178C225.239 119.107 226.24 119.971 228.137 121.723C228.137 117.217 228.137 113.713 228.137 110.209C228.137 110.209 231.447 110.136 236.478 110.209C241.508 110.282 244.657 110.387 244.657 110.387C244.657 117.92 244.907 125.469 244.568 132.994C244.382 137.176 245.924 139.97 248.807 142.78C259.497 153.187 269.977 163.812 280.521 174.373L277.526 177.926C272.617 182.843 269.137 186.613 269.137 186.613C259.803 177.32 250.567 167.954 241.217 158.637C221.646 139.028 202.066 119.432 182.479 99.8501C181.3 98.639 179.992 97.4925 178.409 95.9988Z" fill="#32343A"/>
</g>
<path d="M145.958 204.941V209H130.296V204.941H136.118V190.632C135.872 190.96 135.489 191.302 134.97 191.657C134.451 192.012 133.863 192.354 133.207 192.682C132.578 192.983 131.936 193.229 131.28 193.42C130.624 193.611 130.023 193.707 129.476 193.707V189.484C130.023 189.484 130.651 189.32 131.362 188.992C132.073 188.664 132.77 188.281 133.453 187.844C134.164 187.379 134.765 186.942 135.257 186.532C135.749 186.095 136.036 185.78 136.118 185.589H140.751V204.941H145.958ZM170.013 196.987C170.013 199.392 169.548 201.538 168.619 203.424C167.717 205.283 166.473 206.745 164.888 207.811C163.33 208.877 161.539 209.41 159.517 209.41C157.521 209.41 155.731 208.877 154.146 207.811C152.56 206.745 151.303 205.283 150.374 203.424C149.472 201.538 149.021 199.392 149.021 196.987C149.021 194.582 149.472 192.45 150.374 190.591C151.303 188.705 152.56 187.229 154.146 186.163C155.731 185.07 157.521 184.523 159.517 184.523C161.539 184.523 163.33 185.07 164.888 186.163C166.473 187.229 167.717 188.705 168.619 190.591C169.548 192.45 170.013 194.582 170.013 196.987ZM165.421 196.987C165.421 195.347 165.175 193.912 164.683 192.682C164.191 191.425 163.494 190.454 162.592 189.771C161.69 189.06 160.665 188.705 159.517 188.705C158.341 188.705 157.303 189.06 156.401 189.771C155.499 190.454 154.788 191.425 154.269 192.682C153.777 193.912 153.531 195.347 153.531 196.987C153.531 198.627 153.777 200.062 154.269 201.292C154.788 202.522 155.499 203.492 156.401 204.203C157.303 204.886 158.341 205.228 159.517 205.228C160.665 205.228 161.676 204.886 162.551 204.203C163.453 203.492 164.15 202.522 164.642 201.292C165.161 200.062 165.421 198.627 165.421 196.987ZM195.197 196.987C195.197 199.392 194.733 201.538 193.803 203.424C192.901 205.283 191.658 206.745 190.072 207.811C188.514 208.877 186.724 209.41 184.701 209.41C182.706 209.41 180.916 208.877 179.33 207.811C177.745 206.745 176.488 205.283 175.558 203.424C174.656 201.538 174.205 199.392 174.205 196.987C174.205 194.582 174.656 192.45 175.558 190.591C176.488 188.705 177.745 187.229 179.33 186.163C180.916 185.07 182.706 184.523 184.701 184.523C186.724 184.523 188.514 185.07 190.072 186.163C191.658 187.229 192.901 188.705 193.803 190.591C194.733 192.45 195.197 194.582 195.197 196.987ZM190.605 196.987C190.605 195.347 190.359 193.912 189.867 192.682C189.375 191.425 188.678 190.454 187.776 189.771C186.874 189.06 185.849 188.705 184.701 188.705C183.526 188.705 182.487 189.06 181.585 189.771C180.683 190.454 179.973 191.425 179.453 192.682C178.961 193.912 178.715 195.347 178.715 196.987C178.715 198.627 178.961 200.062 179.453 201.292C179.973 202.522 180.683 203.492 181.585 204.203C182.487 204.886 183.526 205.228 184.701 205.228C185.849 205.228 186.861 204.886 187.735 204.203C188.637 203.492 189.334 202.522 189.826 201.292C190.346 200.062 190.605 198.627 190.605 196.987ZM205.335 191.657C204.132 191.657 203.025 191.384 202.014 190.837C201.03 190.29 200.237 189.566 199.636 188.664C199.062 187.735 198.775 186.71 198.775 185.589C198.775 184.441 199.062 183.416 199.636 182.514C200.237 181.585 201.03 180.847 202.014 180.3C203.025 179.753 204.132 179.48 205.335 179.48C206.537 179.48 207.631 179.753 208.615 180.3C209.599 180.847 210.378 181.585 210.952 182.514C211.526 183.416 211.813 184.427 211.813 185.548C211.813 186.669 211.526 187.694 210.952 188.623C210.378 189.552 209.599 190.29 208.615 190.837C207.631 191.384 206.537 191.657 205.335 191.657ZM205.294 189.32C205.922 189.32 206.483 189.156 206.975 188.828C207.494 188.473 207.89 188.008 208.164 187.434C208.464 186.86 208.615 186.245 208.615 185.589C208.615 184.878 208.464 184.236 208.164 183.662C207.863 183.088 207.453 182.637 206.934 182.309C206.442 181.981 205.909 181.817 205.335 181.817C204.706 181.817 204.132 181.995 203.613 182.35C203.121 182.678 202.724 183.129 202.424 183.703C202.123 184.277 201.973 184.892 201.973 185.548C201.973 186.259 202.123 186.901 202.424 187.475C202.752 188.022 203.162 188.473 203.654 188.828C204.173 189.156 204.72 189.32 205.294 189.32ZM220.382 209.41C219.179 209.41 218.086 209.137 217.102 208.59C216.118 208.043 215.325 207.305 214.724 206.376C214.15 205.447 213.863 204.422 213.863 203.301C213.863 202.18 214.15 201.169 214.724 200.267C215.325 199.338 216.118 198.6 217.102 198.053C218.086 197.506 219.179 197.233 220.382 197.233C221.612 197.233 222.719 197.506 223.703 198.053C224.687 198.572 225.466 199.297 226.04 200.226C226.614 201.155 226.901 202.18 226.901 203.301C226.901 204.422 226.614 205.447 226.04 206.376C225.466 207.305 224.687 208.043 223.703 208.59C222.719 209.137 221.612 209.41 220.382 209.41ZM220.382 207.073C221.01 207.073 221.571 206.895 222.063 206.54C222.582 206.185 222.978 205.734 223.252 205.187C223.552 204.613 223.703 203.998 223.703 203.342C223.703 202.631 223.552 201.989 223.252 201.415C222.951 200.841 222.541 200.39 222.022 200.062C221.53 199.734 220.983 199.57 220.382 199.57C219.78 199.57 219.22 199.748 218.701 200.103C218.209 200.431 217.812 200.882 217.512 201.456C217.211 202.03 217.061 202.645 217.061 203.301C217.061 203.984 217.211 204.613 217.512 205.187C217.84 205.761 218.25 206.226 218.742 206.581C219.234 206.909 219.78 207.073 220.382 207.073ZM200.62 207.36L212.141 193.707L222.965 179.644L225.097 181.489L213.781 194.978L202.711 209.246L200.62 207.36Z" fill="#32343A"/>
</g>
<defs>
<clipPath id="clip0_392_6896">
<rect width="203.376" height="196.966" fill="white" transform="translate(77.145 72.2207)"/>
</clipPath>
</defs>
</svg>
