<svg width="40" height="40" viewBox="0 0 40 40" fill="none" xmlns="http://www.w3.org/2000/svg">
<circle cx="20" cy="20" r="20" fill="#32343A"/>
<g clip-path="url(#clip0_484_5894)">
<path d="M17.9956 30.3029C16.3071 30.3029 14.6185 30.3029 12.9299 30.3029C12.2312 30.3029 11.8984 30.3029 11.8984 30.3029C11.8984 27.6688 11.8984 24.0241 11.8984 21.389L11.9133 17.538C12.3185 17.538 13.6863 17 13.6863 17C13.6863 17.1808 13.6793 21.362 13.6802 21.5628C13.6854 23.673 13.6854 25.7837 13.6802 27.895V16L17.2698 13L21 11C22.0184 11 25.4807 16.4974 26.5 16.5L26.2056 28.4548V27.9439C26.2056 25.8041 26.2003 23.6642 26.2117 21.5244C26.2117 21.2868 26.5 16.7105 26.5 16.5L28.0039 18C28.0082 20.7075 28.0039 27.5954 27.9969 30.3029C27.9969 30.3029 27.6388 30.2907 27.1078 30.2942C25.3028 30.3053 23.4977 30.3053 21.6927 30.2942" fill="#FFB80B"/>
<path d="M19.9541 11.5722C18.7768 12.7582 17.623 13.9303 16.4606 15.0885C14.3854 17.1683 12.3076 19.2455 10.2271 21.3202L9.44718 20.5341L9 19.9978C10.3608 18.6435 11.7186 17.2862 13.0735 15.9261L19.1532 9.84895C20.2738 8.72926 19.7428 8.70043 20.8223 9.86205C22.1385 11.2796 23.5534 12.6019 24.9194 13.9714C25.0199 14.0718 25.1282 14.1653 25.3334 14.3548C25.3334 13.8675 25.3334 13.4884 25.3334 13.1093C25.3334 13.1093 25.6915 13.1015 26.2356 13.1093C26.7797 13.1172 27.1204 13.1286 27.1204 13.1286C27.1204 13.9434 27.1474 14.7601 27.1108 15.5741C27.0907 16.0265 27.2575 16.3287 27.5693 16.6326C28.7257 17.7584 29.8593 18.9078 31 20.0502L30.676 20.4345C30.1449 20.9664 29.7685 21.3743 29.7685 21.3743C28.7589 20.369 27.7597 19.3559 26.7483 18.348C24.6312 16.2268 22.5132 14.1071 20.3943 11.9888C20.2668 11.8578 20.1253 11.7337 19.9541 11.5722Z" fill="#FFB80B"/>
<path d="M25.21 12.6541C25.3805 12.6541 25.8132 12.5401 25.8132 12.4783C25.8132 12.4165 25.8132 12.0916 25.9838 11.7752C26.0523 11.6482 26.1612 11.5361 26.325 11.4236C26.4888 11.3111 26.7412 11.2478 26.9868 11.2478C27.2188 11.2478 27.4269 11.297 27.6112 11.3955C27.8022 11.4869 27.9864 11.5818 28.1638 11.6802C28.3481 11.7787 28.5357 11.8279 28.7268 11.8279C28.911 11.8279 29.0543 11.7857 29.1566 11.7013C29.259 11.6169 29.3306 11.5326 29.3716 11.4482C29.4125 11.3568 29.433 11.3041 29.433 11.29H30.0778C30.0778 11.3181 30.0539 11.3955 30.0061 11.522C29.9652 11.6486 29.8901 11.7927 29.781 11.9544C29.6786 12.1091 29.5387 12.2462 29.3613 12.3658C29.1908 12.4783 28.9758 12.5345 28.7165 12.5345C28.4845 12.5345 28.2696 12.4853 28.0717 12.3869C27.8738 12.2884 27.6896 12.1935 27.519 12.1021C27.3485 12.0037 27.1676 11.9544 26.9766 11.9544C26.806 11.9544 26.6729 12.0002 26.5774 12.0916C26.4819 12.183 26.4956 12.3025 26.4956 12.4783C26.4956 12.6541 27.519 12.6541 26.6662 12.6541H25.21Z" fill="#FFB80B"/>
</g>
<defs>
<clipPath id="clip0_484_5894">
<rect width="22" height="21.3065" fill="white" transform="translate(9 9)"/>
</clipPath>
</defs>
</svg>
