<svg width="112" height="40" viewBox="0 0 112 40" fill="none" xmlns="http://www.w3.org/2000/svg">
<path d="M92.1211 5.99252C92.8582 5.99252 92.8582 5.5068 92.8582 5.24346C92.8582 4.98011 92.8582 3.59551 93.5953 2.2472C93.8911 1.70609 94.3619 1.22847 95.0695 0.749065C95.7771 0.269664 96.8678 0 97.9293 0C98.9317 0 99.831 0.209738 100.627 0.629215C101.453 1.01873 102.249 1.42322 103.015 1.8427C103.811 2.26218 104.622 2.47191 105.448 2.47191C106.244 2.47191 106.863 2.29214 107.305 1.93259C107.747 1.57304 108.057 1.21348 108.234 0.853934C108.411 0.46442 108.499 0.239699 108.499 0.179774H111.286C111.286 0.299625 111.182 0.629214 110.976 1.16854C110.799 1.70787 110.475 2.3221 110.003 3.01124C109.561 3.67042 108.956 4.25469 108.19 4.76405C107.453 5.24345 106.524 5.48316 105.403 5.48316C104.401 5.48316 103.472 5.27342 102.617 4.85394C101.762 4.43446 100.966 4.02997 100.229 3.64046C99.4919 3.22098 98.7106 3.01124 97.885 3.01124C97.1479 3.01124 96.573 3.206 96.1602 3.59551C95.7475 3.98503 95.8066 4.49439 95.8066 5.24346C95.8066 5.99252 96.5437 5.96256 96.5437 5.99252H92.1211Z" fill="#FFB80B"/>
<path d="M21.4259 35.6133V40H0V8.53931H21.03V12.9261H4.92753V21.8769H18.8742V25.9978H4.92753V35.6133H21.4259Z" fill="#FFB80B"/>
<path d="M24.3534 36.1893L43.2276 12.9261H24.7933V8.53931H49.079V12.35L30.6888 35.6133H49.123V40H24.3534V36.1893Z" fill="#FFB80B"/>
<path d="M54.1784 40V8.53931H67.7731C69.1809 8.53931 70.4715 8.83471 71.6447 9.42552C72.8179 10.0163 73.8298 10.7992 74.6804 11.774C75.5603 12.7488 76.2349 13.8418 76.7042 15.053C77.2028 16.2642 77.4521 17.5049 77.4521 18.7751C77.4521 20.1635 77.2028 21.4929 76.7042 22.7631C76.2056 24.0333 75.487 25.1264 74.5484 26.0421C73.6392 26.9579 72.5686 27.6225 71.3367 28.0361L78.684 40H73.1405L66.3652 29.0553H59.1059V40H54.1784ZM59.1059 24.6685H67.7291C68.6383 24.6685 69.4449 24.4026 70.1488 23.8709C70.8528 23.3391 71.41 22.6302 71.8207 21.744C72.2313 20.8282 72.4366 19.8386 72.4366 18.7751C72.4366 17.6821 72.202 16.7073 71.7327 15.8506C71.2634 14.9644 70.6474 14.2554 69.8848 13.7237C69.1516 13.192 68.345 12.9261 67.4651 12.9261H59.1059V24.6685Z" fill="#FFB80B"/>
<path d="M92.2845 8.53931H96.9481L109.091 40H103.899L100.6 31.448H88.5449L85.2892 40H80.0537L92.2845 8.53931ZM99.6318 27.7702L94.6163 13.9895L89.4248 27.7702H99.6318Z" fill="#FFB80B"/>
</svg>
